<svg width="93" height="15" viewBox="0 0 93 15" fill="none" xmlns="http://www.w3.org/2000/svg">
<path d="M3.16425 1.69779V9.57009C3.16425 10.4326 3.389 11.0947 3.8385 11.5564C4.288 12.0059 4.91973 12.2306 5.73368 12.2306C6.55979 12.2306 7.19759 12.0059 7.64709 11.5564C8.09659 11.0947 8.32134 10.4326 8.32134 9.57009V1.69779H10.8908V9.55187C10.8908 10.6331 10.6539 11.5503 10.1801 12.3035C9.71843 13.0446 9.09278 13.6034 8.30312 13.98C7.52561 14.3566 6.65698 14.545 5.69724 14.545C4.74965 14.545 3.88709 14.3566 3.10958 13.98C2.34422 13.6034 1.73679 13.0446 1.28729 12.3035C0.837787 11.5503 0.613037 10.6331 0.613037 9.55187V1.69779H3.16425Z" fill="#1A1A1A"/>
<path d="M15.9069 1.69779V14.4174H13.3557V1.69779H15.9069Z" fill="#1A1A1A"/>
<path d="M25.2845 1.69779V9.57009C25.2845 10.4326 25.5092 11.0947 25.9587 11.5564C26.4082 12.0059 27.04 12.2306 27.8539 12.2306C28.68 12.2306 29.3178 12.0059 29.7673 11.5564C30.2168 11.0947 30.4416 10.4326 30.4416 9.57009V1.69779H33.011V9.55187C33.011 10.6331 32.7741 11.5503 32.3003 12.3035C31.8387 13.0446 31.213 13.6034 30.4233 13.98C29.6458 14.3566 28.7772 14.545 27.8175 14.545C26.8699 14.545 26.0073 14.3566 25.2298 13.98C24.4644 13.6034 23.857 13.0446 23.4075 12.3035C22.958 11.5503 22.7333 10.6331 22.7333 9.55187V1.69779H25.2845Z" fill="#1A1A1A"/>
<path d="M41.0704 4.17611C42.2731 4.17611 43.245 4.55879 43.9861 5.32415C44.7271 6.07736 45.0977 7.13429 45.0977 8.49494V14.4174H42.5464V8.84117C42.5464 8.03937 42.346 7.42586 41.9451 7.00066C41.5442 6.56331 40.9975 6.34463 40.305 6.34463C39.6004 6.34463 39.0416 6.56331 38.6285 7.00066C38.2276 7.42586 38.0272 8.03937 38.0272 8.84117V14.4174H35.4759V4.32189H38.0272V5.57927C38.3673 5.14192 38.7986 4.80176 39.321 4.55879C39.8555 4.30367 40.4387 4.17611 41.0704 4.17611Z" fill="#1A1A1A"/>
<path d="M48.8176 3.11918C48.3681 3.11918 47.9915 2.97947 47.6877 2.70005C47.3962 2.40848 47.2504 2.0501 47.2504 1.6249C47.2504 1.19969 47.3962 0.847384 47.6877 0.567965C47.9915 0.276399 48.3681 0.130615 48.8176 0.130615C49.2671 0.130615 49.6376 0.276399 49.9292 0.567965C50.2329 0.847384 50.3847 1.19969 50.3847 1.6249C50.3847 2.0501 50.2329 2.40848 49.9292 2.70005C49.6376 2.97947 49.2671 3.11918 48.8176 3.11918ZM50.0749 4.32189V14.4174H47.5237V4.32189H50.0749Z" fill="#1A1A1A"/>
<path d="M51.9395 9.36964C51.9395 8.32486 52.1521 7.41371 52.5773 6.6362C53.0025 5.84654 53.5917 5.23911 54.3449 4.81391C55.0982 4.37656 55.9607 4.15788 56.9326 4.15788C58.1839 4.15788 59.2165 4.47375 60.0305 5.10547C60.8566 5.72505 61.4094 6.59976 61.6888 7.72958H58.9371C58.7913 7.29223 58.5423 6.95206 58.19 6.70909C57.8498 6.45397 57.4246 6.32641 56.9144 6.32641C56.1855 6.32641 55.6084 6.59368 55.1832 7.12822C54.758 7.65061 54.5454 8.39775 54.5454 9.36964C54.5454 10.3294 54.758 11.0765 55.1832 11.6111C55.6084 12.1335 56.1855 12.3946 56.9144 12.3946C57.947 12.3946 58.6213 11.933 58.9371 11.0097H61.6888C61.4094 12.1031 60.8566 12.9717 60.0305 13.6156C59.2044 14.2595 58.1718 14.5814 56.9326 14.5814C55.9607 14.5814 55.0982 14.3688 54.3449 13.9436C53.5917 13.5062 53.0025 12.8988 52.5773 12.1213C52.1521 11.3316 51.9395 10.4144 51.9395 9.36964Z" fill="#1A1A1A"/>
<path d="M68.0406 14.5814C67.0687 14.5814 66.194 14.3688 65.4165 13.9436C64.639 13.5062 64.0255 12.8927 63.576 12.1031C63.1387 11.3134 62.92 10.4023 62.92 9.36964C62.92 8.33701 63.1447 7.42586 63.5942 6.6362C64.0559 5.84654 64.6815 5.23911 65.4712 4.81391C66.2609 4.37656 67.1416 4.15788 68.1135 4.15788C69.0854 4.15788 69.9662 4.37656 70.7558 4.81391C71.5455 5.23911 72.1651 5.84654 72.6146 6.6362C73.0762 7.42586 73.3071 8.33701 73.3071 9.36964C73.3071 10.4023 73.0702 11.3134 72.5964 12.1031C72.1347 12.8927 71.503 13.5062 70.7012 13.9436C69.9115 14.3688 69.0247 14.5814 68.0406 14.5814ZM68.0406 12.3582C68.5023 12.3582 68.9335 12.2489 69.3345 12.0302C69.7475 11.7994 70.0755 11.4592 70.3185 11.0097C70.5615 10.5602 70.683 10.0135 70.683 9.36964C70.683 8.4099 70.4278 7.67491 69.9176 7.16467C69.4195 6.64228 68.806 6.38108 68.0771 6.38108C67.3482 6.38108 66.7346 6.64228 66.2366 7.16467C65.7506 7.67491 65.5076 8.4099 65.5076 9.36964C65.5076 10.3294 65.7445 11.0704 66.2183 11.5928C66.7043 12.1031 67.3117 12.3582 68.0406 12.3582Z" fill="#1A1A1A"/>
<path d="M77.7297 5.88906C78.0577 5.35452 78.4829 4.93539 79.0053 4.63168C79.5398 4.32796 80.1473 4.17611 80.8276 4.17611V6.85488H80.1533C79.3515 6.85488 78.7441 7.04318 78.331 7.41979C77.9301 7.79639 77.7297 8.45242 77.7297 9.38786V14.4174H75.1785V4.32189H77.7297V5.88906Z" fill="#1A1A1A"/>
<path d="M88.1404 4.17611C89.3431 4.17611 90.315 4.55879 91.0561 5.32415C91.7971 6.07736 92.1677 7.13429 92.1677 8.49494V14.4174H89.6164V8.84117C89.6164 8.03937 89.416 7.42586 89.0151 7.00066C88.6142 6.56331 88.0675 6.34463 87.375 6.34463C86.6704 6.34463 86.1116 6.56331 85.6985 7.00066C85.2976 7.42586 85.0972 8.03937 85.0972 8.84117V14.4174H82.5459V4.32189H85.0972V5.57927C85.4373 5.14192 85.8686 4.80176 86.391 4.55879C86.9255 4.30367 87.5087 4.17611 88.1404 4.17611Z" fill="#1A1A1A"/>
</svg>
